<?xml version="1.0" encoding="utf-8"?>
<!-- Generator: Adobe Illustrator 15.1.0, SVG Export Plug-In . SVG Version: 6.00 Build 0)  -->
<!DOCTYPE svg PUBLIC "-//W3C//DTD SVG 1.1//EN" "http://www.w3.org/Graphics/SVG/1.1/DTD/svg11.dtd">
<svg version="1.1"
	 id="Busan" xmlns:svg="http://www.w3.org/2000/svg" xmlns:dc="http://purl.org/dc/elements/1.1/" xmlns:rdf="http://www.w3.org/1999/02/22-rdf-syntax-ns#" xmlns:inkscape="http://www.inkscape.org/namespaces/inkscape" xmlns:sodipodi="http://sodipodi.sourceforge.net/DTD/sodipodi-0.dtd" xmlns:cc="http://creativecommons.org/ns#" inkscape:version="0.48.1 " sodipodi:docname="Map_Busan-gwangyeoksi.svg"
	 xmlns="http://www.w3.org/2000/svg" xmlns:xlink="http://www.w3.org/1999/xlink" x="0px" y="0px" width="600px" height="450px"
	 viewBox="-5.5 4.5 600 450" enable-background="new -5.5 4.5 600 450" xml:space="preserve">
<path id="Buk-gu" fill="#C8C8C8" stroke="#FEFEE9" d="M284.25,207.25c-4.375-2.125-0.25-10.75,1.875-13.75s-5.75-16.625-9.75-23.875
	s4.375-16,6-18.25s0.985-7.084,0.985-7.084c-1.524,0.309-8.844,1.391-16.445,2.503c-7.601,1.112-14.749,1.94-15.732,2.756
	c-0.668,0.555-1.659,1.478-1.97,3.083c-0.311,1.606-0.006,5.206,0.292,7.74c0.356,3.028,0.641,4.543,0.475,5.732
	s-1.701,1.779-3.043,3.583c-4.318,5.804-6.722,8.9-8.537,15.812c-0.539,2.052-1.377,7.323-2.261,8.769
	c-0.885,1.446-2.169,2.322-3.54,3.351c-1.716,1.288-4.661,2.693-7.582,4.265c0.572-0.064,1.303,0.652,0.984,5.116
	c-0.5,7-3.25,14.25-3.25,18.75c0,4.028,2.303,16.949,1.15,19.998l2.6,2.252c0,0,14.25,4.875,18.75,7.375
	c1.584,0.88,3.494,1.122,5.229,0.99c3.195-0.243,6.208-1.725,8.396-2.615c3.218-1.312,12.729-5.583,20.776-9.791
	c0.392-0.205,0.966-0.631,1.349-0.834c8.25-4.375,9.75-12.875,11.25-14.25s4.945-10.651,4.82-12.651S288.625,209.375,284.25,207.25z
	"/>
<path id="Busanjin-gu" fill="#C8C8C8" stroke="#FEFEE9" d="M324.012,291.91c-2.651-1.768-3.535-5.303-1.944-6.895
	c1.591-1.59-0.354-7.601-1.768-10.783c-1.415-3.182-10.077-3.005-12.198-3.358s-3.182-4.243-5.656-6.364s-9.016-1.414-10.96-2.651
	c-1.945-1.237-6.01-9.899-6.541-10.783s-5.293-7.116-5.293-7.116c-8.047,4.208-17.558,8.479-20.776,9.791
	c-2.187,0.891-5.2,2.372-8.396,2.615c0,0,3.175,1.074,2.114,3.549c-1.061,2.475-4.419,13.789-4.242,19.092
	s3.712,13.258,4.065,15.732c0.354,2.476-0.884,11.668-1.591,13.966s-2.652,7.602-4.243,8.132l16.016,7.718
	c0.191-0.147,0.392-0.304,0.602-0.47c3.359-2.652,3.182-1.768,6.541-3.713c3.359-1.943,5.657-6.01,6.011-7.248
	c0.354-1.236,7.248-1.768,9.192-1.768c1.944,0,4.065,1.238,5.48,2.121c1.414,0.885,8.574-0.441,8.574-0.441
	c-0.53-1.768,1.148-0.973,1.855-1.68c0.708-0.707,1.769-3.005,3.536-3.535s9.192-1.061,14.318-4.42
	c5.127-3.358,9.013-10.43,9.013-10.43C326.35,292.691,325.045,292.599,324.012,291.91z"/>
<path id="Dong-gu" fill="#C8C8C8" stroke="#FEFEE9" d="M300.324,338.049c1.944-1.944,0.707-11.667,1.061-14.849
	c0.354-3.183-1.855-8.397-2.387-10.165c0,0-7.16,1.326-8.574,0.441c-1.415-0.883-3.536-2.121-5.48-2.121
	c-1.945,0-8.839,0.531-9.192,1.768c-0.354,1.238-2.652,5.305-6.011,7.248c-3.358,1.945-3.182,1.061-6.541,3.713
	c-0.21,0.166-0.411,0.322-0.602,0.47h0h0c-2.864,2.213-3.641,2.513-3.641,4.833c0,2.476-1.414,5.48-1.591,7.072
	c-0.177,1.59-0.884,4.242,1.591,4.596c2.475,0.354,2.298,0.53,4.419,2.828c0.53,0.574,1.069,1.104,1.207,1.535
	c0,0,8.869-0.298,14.879,0.586c5.136,0.756,11.609,2.539,13.39,3.043c0.275-1.241,1.06-1.969,2.792-3.331
	c1.087-0.855,2.287-1.595,3.515-2.121c-0.614-0.426-1.763-1.337-2.02-2.363C296.788,339.816,298.379,339.994,300.324,338.049z"/>
<path id="Dongnae-gu" fill="#C8C8C8" stroke="#FEFEE9" d="M296.258,255.494c5.304-0.884,6.011-1.591,12.551-6.541
	c6.541-4.949,13.082-6.717,14.85-4.242s4.065,5.834,8.132,6.011c4.065,0.177,9.369-1.944,11.667-1.769
	c2.298,0.178,10.076,1.945,11.49,2.299c1.415,0.354,4.04,0.004,4.04,0.004c-0.013-3.774,0.257-7.864-0.15-10.61
	c-0.707-4.773-1.237-10.607-1.237-10.607c-2.652,0.884-4.597-1.06-7.071-2.475c-2.475-1.414-2.651-3.712-5.48-8.485
	c-2.828-4.773-7.955-4.243-13.965-3.712c-6.011,0.53-8.309-2.298-10.783-4.419c-2.476-2.122-6.188-2.122-13.436,0.884
	c-7.247,3.005-9.794,4.394-9.794,4.394c0.125,2-3.32,11.276-4.82,12.651s-3,9.875-11.25,14.25c-0.383,0.203-0.957,0.629-1.349,0.834
	c0,0,4.763,6.232,5.293,7.116C284.944,251.075,290.955,256.379,296.258,255.494z"/>
<path id="Gangseo-gu" fill="#C8C8C8" stroke="#FEFEE9" d="M178.25,334.25c-0.25-1.75,4.5-5.5,7-8.25s3.5-15.5,4-18.25
	s1.75-12,1.5-15.25s2.25-15.25,2.5-22.25s1-9.25,2-11.25s10-5.25,13-6.75s12.75-5.25,15-5.75c0.236-0.053,0.516-0.396,0.65-0.752
	c1.153-3.049-1.15-15.97-1.15-19.998c0-4.5,2.75-11.75,3.25-18.75c0.319-4.464-0.412-5.181-0.984-5.116
	c-0.2,0.107-0.4,0.214-0.599,0.323c-3.477,1.905-6.9,4.007-10.133,5.412c-6.125,2.662-10.068,3.562-16.721,5.182
	c-12.272,2.988-14.175,3.61-22.757,2.403c-4.553-0.64-7.315-2.063-9.667-1.757c-2.352,0.305-5.609,1.978-9.772,3.749
	c-4.76,2.025-8.947,4.102-9.951,4.102c-0.502,0-1.277-0.326-1.965-1.11c-0.688-0.785-0.625-1.563-1.133-2.778
	c-0.836-2.001-0.328-3.471-1.44-4.352c-1.113-0.88-4.133-1.57-6.414-1.57c-1.149,0-2.88-0.151-3.888,0.034s-1.291,0.704-1.93,1.249
	c-1.279,1.09-2.368,2.9-4.437,5.781c-2.199,3.061-2.065,4.489-3.403,5.33s-4.322,1.27-7.365,1.27c-3.453,0-7.628,0.28-9.145,1.055
	c-3.473,1.773-14.84,12.707-14.84,14.272c0,0.643,4.128,5.313,6.906,8.326c4.95,5.371,4.155,6.314,4.155,15.539
	c0,8.935,0.621,7.736,3.897,10.445c3.396,2.807,5.086,7.207,3.852,10.988c-0.727,2.225-3.218,2.061-9.471,2.061
	c-4.164,0-8.048-0.352-10.541-1.393c-1.29-0.539-1.12-1.467-3.951-1.945c-2.831-0.479-9.663-0.574-12.208-0.574
	c-4.085,0-4.516-0.826-6.66-0.096c-2.144,0.73-3.876,2.828-5.314,4.801c-3.296,4.52-6.708,3.139-14.254,5.42
	c-3.023,0.915-6.561,1.979-10.219,2.968l-6.674-4.189c-4.97-3.272-16.962-2.653-21.456-0.249c-4.766,2.551-3.742,4.992,0.843,15.053
	c3.849,8.446,5.576,9.934,12.53,14.226c5.341,3.297,12.653,5.403,16.041,5.416c3.792,0.015,4.901,0.159,6.152,1.437
	c1.251,1.276,2.379,3.996,3.912,7.836c1.505,3.771,1.827,6.873,3.522,8.998c0.574,0.721,1.934,2.469,2.837,3.135
	c0.903,0.664,1.349,0.244,1.864,1.045c1.031,1.602,0.215,3.577-0.008,5.1c-0.336,2.291-0.439,3.428-2.047,4.159
	s-4.355,0.862-10.719,1.411l-8.853,0.766c-2.154,1.914-2.071,4.572-2.575,7.037c-0.423,2.068-1.371,3.303-1.4,4.832
	c-0.029,1.531,0.862,3.357,1.287,3.782c0.698,0.698,8.752,3.462,17.737,6.845c7.751,2.918,9.821,4.756,16.231,5.932
	c3.205,0.588,7.495,1.01,10.984,1.121c3.489,0.111,6.267,0.439,6.271-0.219c0.003-0.602,0.908-3.602,2.642-5.582l2.15-2.455
	c1.546-0.252,2.1,1.949,3.064,4.254c1.315,3.142,2.308,5.053,3.463,5.656c1.155,0.604,5.08-1.073,7.043-3.163
	c0.905-0.964,0.696-1.015,1.862-2.317s1.365-3.371,1.76-5.096c0.396-1.727,0.755-3.572,0.818-5.937s0.491-5.2,0.757-8.64
	c0.309-3.97,0.35-7.454,0.874-10.592s1.53-5.93,2.706-8.689l3.362-7.891h6.031c5.575,0,5.899,0.678,5.899,3.564
	c0,1.719-2.315,7.002-4.424,12.192l-2.876,7.08l-0.484,3.306l1.991,8.08c0.652,4.932,1.824,9.976,2.807,10.791
	c1.128,0.938,5.262,1.422,9.463,0.566c2.101-0.429,2.186-0.75,4.108-1.365c1.922-0.613,4.926-1.269,5.852-1.792
	c1.333-0.753,3.133-3.304,4.167-6.387c1.035-3.084,1.569-7.586,1.256-10.123c-0.173-1.407,2.986-4.606,6.148-8.489
	c3.185-3.91,4.871-6.259,6.278-6.959c0.599-0.299,0.59-0.062,0.849,0.258c0,0,9.806-7.512,10.806-8.762s2.75-2.75,5.75-4
	c1.528-0.637,2.195-1.144,2.339-1.719C178.728,335.727,178.373,335.108,178.25,334.25z"/>
<path id="Geumjeong-gu" fill="#C8C8C8" stroke="#FEFEE9" d="M388.5,174.75c-2.5-1.75-2.75-5.25-3.75-7.75s-8.25-1.5-13-2.75
	s-2.5-7.75-2.5-11.25s2.75-8.5,5-12s3-11.75,2.75-16s-4.75-6.25-9.5-9.25c-3.871-2.445-8.902-6.548-10.633-7.984
	c-0.323,0.203-0.699,0.419-1.159,0.671c-2.888,1.583-8.786,4.87-17.785,9.082c-5.703,2.67-9.406,4.864-12.858,6.074
	c-3.453,1.21-6.092,0.938-10.792,1.423c-6.14,0.635-11.547,0.291-12.855,0.991c-1.308,0.7-4.782,3.62-8.07,7.708
	c-1.567,1.948-2.788,3.659-4.923,6.879c-1.578,2.38-4.301,3.542-5.063,3.697c0,0,0.64,4.834-0.985,7.084s-10,11-6,18.25
	s11.875,20.875,9.75,23.875s-6.25,11.625-1.875,13.75s12.695,6.974,12.82,8.974c0,0,2.547-1.388,9.794-4.394
	c7.248-3.005,10.96-3.005,13.436-0.884c2.475,2.121,4.772,4.95,10.783,4.419c6.01-0.53,11.137-1.061,13.965,3.712
	c2.829,4.773,3.006,7.071,5.48,8.485c2.475,1.415,4.419,3.358,7.071,2.475c2.651-0.884,3.182-2.828,6.363-4.419
	c3.183-1.591,3.536-3.005,3.713-6.187s0.707-9.899,3.182-10.253c2.475-0.354,9.723-4.065,10.43-5.48
	c0.707-1.414,4.773-10.783,6.541-11.313s2.651-6.718,4.243-7.425c1.431-0.636,2.908-2.835,3.191-3.273
	C391.975,179.046,390.58,176.206,388.5,174.75z"/>
<path id="Haeundae-gu" fill="#C8C8C8" stroke="#FEFEE9" d="M469.75,262.25c-2.25-0.75-2.25-7.75-3.5-10.5s-7.75-6.5-9.5-7
	s-6,2-7,3.25s-3.75,5.75-5.5,6.75s-2-1.25-2.75-3.25s-2.5-7.75-3.25-10s-2.75-5.5-4.25-6.75s-11.5,2.25-14.75,2s-6.75-3.25-7.75-5
	s3-3.25,4.25-5.25s3.5-12.25,3.5-16.75s-2.5-4.75-3-8.5s-6.5-10.25-7.5-12.25s-6.25-2.75-11.25-5.75
	c-0.84-0.504-1.573-1.029-2.237-1.563c-0.283,0.438-1.761,2.637-3.191,3.273c-1.592,0.707-2.476,6.895-4.243,7.425
	s-5.834,9.899-6.541,11.313c-0.707,1.415-7.955,5.126-10.43,5.48c-2.475,0.354-3.005,7.071-3.182,10.253s-0.53,4.596-3.713,6.187
	c-3.182,1.591-3.712,3.535-6.363,4.419c0,0,0.53,5.834,1.237,10.607c0.407,2.746,0.138,6.836,0.15,10.61
	c0.01,2.784,0.16,5.318,0.91,7.42c1.271,3.558,1.887,6.276,3.111,8.687c0.479,0.943,1.143,2.009,1.839,2.805
	c2.475,2.828,9.369,7.778,9.899,10.43s2.651,6.541,2.828,10.253c0.146,3.051,1.271,6.47,1.67,7.594
	c0.294-0.012,0.576-0.025,0.882-0.035c3.419-0.111,5.597-0.164,7.226,0.086s2.634,1.231,3.774,2.416
	c1.44,1.495,3.213,3.291,4.711,3.633c1.714,0.392,6.617,0.176,9.478-0.97s3.622-3.026,5.252-4.761
	c1.827-1.945,4.111-2.503,7.207-2.334c3.096,0.168,3.966,0.51,6.831,2.258c2.766,1.686,3.999,3.056,4.817,3.53
	c0.819,0.475,1.225,0.054,3.44-1.839c0.979-0.836,5.233-4.142,7.304-5.555c2.07-1.414,1.957-0.938,2.406-1.152
	c1.005-0.482,2.145-0.447,4.94-1.765c1.6-0.754,3.222-1.493,4.413-2.554c1.228-1.134,1.644-2.402,1.611-3.747l-0.638-5.207
	c-0.014-2.072,0.002-3.784,0.279-5.333c0.277-1.55,0.665-2.699,1.058-3.172c0.393-0.474,1.195-1.559,3.16-2.295
	c1.966-0.737,5.646-1.283,8.64-2.257c2.546-0.829,3.946-1.89,5.91-2.557c0.553-0.188,1.104-0.331,1.645-0.463
	C473.132,264.006,471.622,262.874,469.75,262.25z"/>
<path id="Jung-gu" fill="#C8C8C8" stroke="#FEFEE9" d="M269.741,375.525c4.066,0.531,17.854-0.354,18.738-2.121
	s2.475-6.895,3.889-8.484c1.415-1.592,2.77-3.908,2.77-3.908c-1.47-2.107-1.877-4.182-2.149-7.011
	c-0.239-2.489-0.368-3.904-0.135-4.954c-1.781-0.504-8.254-2.287-13.39-3.043c-6.01-0.884-14.879-0.586-14.879-0.586
	c0.414,1.293-1.119,2.133-4.036,4.121c-3.889,2.652-3.889,3.006-4.773,6.012c-0.884,3.004-3.182,4.065-0.53,7.601
	c2.652,3.536,5.303,6.718,6.364,9.016c1.061,2.298,2.245,5.577,2.245,5.577S265.675,374.996,269.741,375.525z"/>
<path id="Nam-gu" fill="#C8C8C8" stroke="#FEFEE9" d="M376.684,346.051c-1.533-1.402-2.659-4.598-3.125-7.195
	c-0.591-3.295-2.046-8.676-3.884-11.259c-1.837-2.582-4.057-2.364-5.293-2.418c-1.138-0.049-1.848-0.809-3.065-2.312
	c-1.218-1.502-2.235-3.305-2.576-4.557c-0.084-0.31-0.016-0.62,0.149-0.935c-0.938,0.145-2.389,0.25-3.589-0.187
	c-1.944-0.707-6.363-4.596-7.954-5.656c-1.592-1.061-3.183-14.143-4.773-15.203c-0.796-0.53-2.177-1.403-3.789-1.955
	c-1.613-0.553-3.459-0.785-4.873-0.697c-1.727,0.108-4.042-0.27-6.19-0.707c0,0-3.886,7.071-9.013,10.43
	c-5.126,3.359-12.551,3.89-14.318,4.42s-2.828,2.828-3.536,3.535c-0.707,0.707-2.386-0.088-1.855,1.68
	c0.531,1.768,2.74,6.982,2.387,10.165c-0.354,3.182,0.884,12.904-1.061,14.849c-1.945,1.945-3.536,1.768-3.183,3.183
	c0.257,1.026,1.405,1.938,2.02,2.363c1.375-0.589,2.783-0.907,4.107-0.777c3.478,0.341,3.569,0.569,3.545,4.945
	c-0.024,4.365,1.31,6.2,5.81,7.792c3.826,1.355,5.03,1.773,11.38-0.23c3.067-0.969,4.661-2.031,6.938-2.229
	c2.278-0.197,3.716-0.033,5.209,0.518c1.493,0.55,2.424,1.529,3.157,2.873c0.734,1.345,0.548,3.332,0.299,5.502
	c-0.521,4.559,0.624,6.148,4.001,6.736c1.607,0.279,4.491,0.668,5.153,0.195c0.662-0.475,1.189-1.944,2.313-3.486
	c1.589-2.182,1.322-2.506,2.646-2.436c1.323,0.069,1.17-1.088,2.777,1.957c2.475,4.689,6.871,6.451,10.073,5.647
	c2.514-0.63,5.604-1.638,6.791-3.242c0.594-0.803,1.521-1.976,1.922-3.523s0.271-3.473,1.404-6.661
	c0.801-2.256,1.516-3.201,1.947-4.452c0.433-1.252,0.583-2.812,0.607-3.467C379.294,347.945,378.217,347.453,376.684,346.051z"/>
<path id="Saha-gu" fill="#C8C8C8" stroke="#FEFEE9" d="M248.882,393.734c2.121-1.062,0.177-14.319-0.354-17.324
	c-0.531-3.006-3.889-4.773-5.304-5.304c-1.414-0.53-1.591-12.552-3.182-16.794c-1.591-4.242-9.016-4.596-11.314-5.303
	c-2.298-0.707-1.768-0.884-1.944-2.829c0,0-6.718-1.944-10.43-2.651c-3.712-0.707-8.839,3.889-13.612,4.066
	c-4.773,0.176-9.546-3.713-13.082-4.95c-3.536-1.237-11.073-6.364-11.073-6.364c-0.144,0.575-0.811,1.082-2.339,1.719
	c-3,1.25-4.75,2.75-5.75,4s-10.806,8.762-10.806,8.762c0.349,0.432,0.819,1.206,0.484,2.849c-0.39,1.909-1.716,10.066-2.839,17.316
	c-1.943,12.541-2.021,13.262,0.129,14.834c2.706,1.979,6.496,1.683,7.578-0.069c0.435-0.703,2.038-5.037,3.4-10.062
	c3.517-12.972,3.709-15.888,6.58-16.798c2.472-0.785,4.599-0.362,5.625,3.133c1.025,3.496,0.86,10.505,1.576,23.069
	c0.752,13.192,1.342,27.887,1.636,32.437c0.249,3.861,0.262,6.104,0.67,7.931c0.408,1.827,1.166,3.504,2.992,5.704l1.591,5.436
	l4.243,7.16c1.669,2.011,4.528,0.41,7.83-1.356c1.887-1.01,1.69-3.153,1.69-7.78c0-4.934,1.213-8.193,3.734-10.129
	c2.521-1.935,7.234-1.794,11.757-0.543c1.515,0.419,2.428,1.318,2.805,2.04s-0.059,2.701-0.32,4.156
	c-0.68,3.785,0.856,4.049,1.111,4.46c1.244,2,9.518,2.865,10.853,0.734c0.879-1.403,0.832-5.921,0.374-11.145
	c-0.458-5.223-0.93-10.444-2.222-12.548c-2.063-3.358-4.787-5.777-5.948-7.911c-1.161-2.134-2.128-4.337-2.358-5.85
	c-0.459-3.026,0.397-4.352,2.952-7.979c2.183-3.099,2.79-3.809,6.873-3.073c3.495,0.629,5.935,0.881,7.158,2.356
	c0.188,0.227,0.318,0.325,0.415,0.362c0.156-0.742,0.368,0.141,0,0c-0.069,0.328-0.126,0.973-0.116,2.18
	c0.028,3.166-0.494,5.403-0.418,8.15c0,0,1.4-0.083,2.284-0.613S246.76,394.795,248.882,393.734z"/>
<path id="Sasang-gu" fill="#C8C8C8" stroke="#FEFEE9" d="M250.826,308.704c0.707-2.298,1.944-11.49,1.591-13.966
	c-0.354-2.475-3.889-10.43-4.065-15.732s3.182-16.617,4.242-19.092c1.061-2.475-2.114-3.549-2.114-3.549
	c-1.736,0.132-3.646-0.11-5.229-0.99c-4.5-2.5-18.75-7.375-18.75-7.375l-2.6-2.252c-0.135,0.356-0.415,0.699-0.65,0.752
	c-2.25,0.5-12,4.25-15,5.75s-12,4.75-13,6.75s-1.75,4.25-2,11.25s-2.75,19-2.5,22.25s-1,12.5-1.5,15.25s-1.5,15.5-4,18.25
	s-7.25,6.5-7,8.25c0.123,0.858,0.478,1.477,0.339,2.031c0,0,7.537,5.127,11.073,6.364c3.535,1.237,8.308,5.126,13.082,4.95
	c4.773-0.178,9.899-4.773,13.612-4.066c3.712,0.707,10.43,2.651,10.43,2.651c-0.177-1.944,0.707-5.479,3.182-6.187
	c2.475-0.707,2.298-6.718,4.596-10.961c2.298-4.242,2.122-7.955,2.652-9.545c0.53-1.592,7.778-2.122,9.369-2.652
	S250.119,311.002,250.826,308.704z"/>
<path id="Seo-gu" fill="#C8C8C8" stroke="#FEFEE9" d="M237.214,319.488c-0.53,1.59-0.354,5.303-2.652,9.545
	c-2.298,4.243-2.121,10.254-4.596,10.961c-2.475,0.707-3.358,4.242-3.182,6.187c0.177,1.945-0.354,2.122,1.944,2.829
	c2.298,0.707,9.723,1.061,11.314,5.303c1.591,4.242,1.768,16.264,3.182,16.794c1.415,0.53,4.773,2.298,5.304,5.304
	c0.53,3.005,2.475,16.263,0.354,17.324c-2.122,1.061-6.188,4.949-7.071,5.479s-2.284,0.613-2.284,0.613
	c0.049,1.798,0.564,3.963,0.927,6.232c0.458,2.869-0.021,0.796,0.784,3.647c0.402,1.426,0.043,5.298,0.659,7.635
	c0.616,2.338,2.56,3.36,2.795,3.596c0.54,0.54,0.501,1.361,1.333,1.264c0.833-0.098,2.442-1.169,4-2.174
	c1.835-1.184,3.968-1.872,5.483-3.589l-1.233-7.225l-1.012-6.915l3.436-3.103l5.955-3.059l0.105-5.204
	c-0.343-1.498-0.628-2.977-1.31-4.586c-0.794-1.877-0.811-4.107-0.119-5.639c0.594-1.316,1.529-2.582,2.526-2.965
	c0,0-1.184-3.279-2.245-5.577c-1.061-2.298-3.712-5.479-6.364-9.016c-2.652-3.535-0.354-4.597,0.53-7.601
	c0.884-3.006,0.884-3.359,4.773-6.012c2.917-1.988,4.45-2.828,4.036-4.121c-0.138-0.431-0.677-0.961-1.207-1.535
	c-2.122-2.298-1.945-2.475-4.419-2.828c-2.475-0.354-1.768-3.006-1.591-4.596c0.177-1.592,1.591-4.597,1.591-7.072
	c0-2.32,0.777-2.62,3.641-4.833l-16.016-7.718C244.993,317.366,237.745,317.896,237.214,319.488z"/>
<path id="Suyeong-gu" fill="#C8C8C8" stroke="#FEFEE9" d="M377.575,290.85c-0.177-3.712-2.298-7.602-2.828-10.253
	s-7.425-7.602-9.899-10.43c-0.696-0.796-1.359-1.861-1.839-2.805c0,0-7.885-0.554-10.359,1.921s-3.712,5.834-6.011,6.188
	c-2.298,0.354-4.772,1.414-5.126,3.535s-0.707,6.363-1.414,6.363s-1.314,9.006-1.314,9.006c1.612,0.552,2.993,1.425,3.789,1.955
	c1.591,1.061,3.182,14.143,4.773,15.203c1.591,1.061,6.01,4.949,7.954,5.656c1.2,0.437,2.651,0.331,3.589,0.187
	c0.426-0.809,1.561-1.652,2.887-2.632c1.939-1.434,3.599-6.377,3.846-8.854c0.581-5.813,4.339-7.079,13.623-7.447
	C378.847,297.319,377.721,293.9,377.575,290.85z"/>
<path id="Yeongdo-gu" fill="#C8C8C8" stroke="#FEFEE9" d="M337.23,416.471c-8.031-7.23-10.009-9.766-10.009-15.522
	c0-2.373,0.063-5.413-0.708-7.541c-0.771-2.129-2.374-3.347-4.999-6.496c-3.357-4.028-11.36-12.605-17.136-18.032
	c-4.93-4.633-7.771-5.759-9.24-7.867c0,0-1.355,2.316-2.77,3.908c-1.414,1.59-3.005,6.717-3.889,8.484s-14.672,2.652-18.738,2.121
	c-4.066-0.529-5.887,2.219-5.887,2.219c2.934-1.126,5.362,3.209,5.362,7.831c0,1.477-0.758,2.359,0.977,3.862
	c1.734,1.504,6.094,3.495,11.115,6.217c15.836,8.585,21.05,11.898,22.039,16.399c0.454,2.065,2.058,4.39,3.563,5.166
	c1.506,0.775,5.66,4.065,9.286,6.826c6.56,4.992,15.698,8.113,19.757,6.825c1.17-0.371,3.105-5.331,4.03-7.889
	C341.602,418.508,340.732,419.624,337.23,416.471z"/>
<path id="Yeonje-gu" fill="#C8C8C8" stroke="#FEFEE9" d="M359.897,258.676c-0.75-2.102-0.9-4.636-0.91-7.42
	c0,0-2.625,0.35-4.04-0.004c-1.414-0.354-9.192-2.121-11.49-2.299c-2.298-0.176-7.602,1.945-11.667,1.769
	c-4.066-0.177-6.364-3.536-8.132-6.011s-8.309-0.707-14.85,4.242c-6.54,4.95-7.247,5.657-12.551,6.541
	c-5.303,0.885-11.313-4.419-11.313-4.419c0.53,0.884,4.596,9.546,6.541,10.783c1.944,1.237,8.486,0.53,10.96,2.651
	s3.535,6.011,5.656,6.364s10.783,0.177,12.198,3.358c1.414,3.183,3.358,9.193,1.768,10.783c-1.591,1.592-0.707,5.127,1.944,6.895
	c1.033,0.688,2.338,0.781,3.709,1.061c2.148,0.438,4.464,0.815,6.19,0.707c1.414-0.088,3.26,0.145,4.873,0.697
	c0,0,0.607-9.006,1.314-9.006s1.061-4.242,1.414-6.363s2.828-3.182,5.126-3.535c2.299-0.354,3.536-3.713,6.011-6.188
	s10.359-1.921,10.359-1.921C361.784,264.952,361.168,262.233,359.897,258.676z"/>
<path id="Gijang-gun" fill="#C8C8C8" stroke="#FEFEE9" d="M573.166,93.016c-0.629-0.388-0.542-0.071-0.328-2.738l0.295-3.694
	l0.631-3.471l-6.206-3.887c-1.374-0.86-3.735-1.976-5.344-2.636c-1.608-0.66-2.465-0.865-3.729-1.913
	c-2.531-2.096-4.294-4.597-5.694-6.31c-2.801-3.426-2.535-4.202-1.442-7.849c1.231-4.111,2.975-4.186,1.247-7.527
	c-0.687-1.328-2.983-5.827-3.149-7.141s-0.1-1.675,0.146-3.209c0.339-2.12,1.729-3.46,1.364-4.857s-2.486-3.298-5.152-5.87
	c-1.598-1.542-4.558-3.347-5.885-5.179c-1.326-1.833-2.527-3.693-3.176-5.123c-0.56-1.233-1.676-3.306-1.73-4.953
	c-0.047-1.413-0.94-2.037-2.415-3.175c-2.148-1.658-5.609-1.162-8.153-1.383c-1.131-0.098-10.57,2.075-14.796,3.517
	c-3.879,1.324-2.326,0.437-4.763,0.851c-4.873,0.828,0.933-0.336-7.479,1.509c-5.637,1.236-10.831,2.831-14.824,3.448
	c-3.993,0.618-6.73,0.873-7.343,0.659c-0.612-0.214-2.531-0.762-4.043-2.097c-1.511-1.335-2.671-3.347-3.887-4.481
	c-1.443-1.348-1.113-1.203-2.889-2.356c-1.774-1.153-5.209-2.042-6.817-2.557c-3.218-1.029-5.268-0.447-6.391,1.069
	c-0.593,0.801-0.813,1.976-1.106,2.847s-0.661,1.885-0.434,2.588c0.454,1.406,2.172,2.239,4.252,3.777
	c2.114,1.563,3.563,2.56,3.858,4.278c0.294,1.718,0.047,1.48-1.343,4.146c-0.26,0.498-0.843,0.774-1.193,1.386
	c-0.352,0.612-0.472,1.56-0.699,2.283c-0.455,1.447-0.837,4.173-0.839,4.93c-0.007,2.69-2.487,6.718-4.472,6.718
	c-0.55,0-3.144,1.704-5.765,3.788c-4.128,3.28-6.925,3.661-13.608,3.65c-4.54-0.007-9.229-1.605-14.125-3.838
	c-2.448-1.117-3.755-1.527-5.567-2.989c-2.426-1.956-3.738-4.265-5.17-5.788c-3.147-3.35-3.368-1.947-8.473-1.947
	c-8.265,0-18.7,2.153-18.7,4.045c0,0.43-0.958,0.723-0.573,1.597s0.986,1.705,1.854,2.459c2.005,1.743,4.948,3.804,5.011,5.166
	c0.063,1.362-0.255,1.899-2.523,5.095c-1.108,1.562-2.084,1.673-3.527,4.468c-1.449,2.807-3.051,9.487-3.247,12.313
	c-0.449,6.451-4.093,9.479-7.688,15.648c-1.274,2.188-3.144,2.85-4.363,5.1c-1.221,2.25-2.917,8.275-3.349,9.817
	c-0.801,2.859-0.848,3.497-2.557,4.568c1.73,1.436,6.762,5.539,10.633,7.984c4.75,3,9.25,5,9.5,9.25s-0.5,12.5-2.75,16s-5,8.5-5,12
	s-2.25,10,2.5,11.25s12,0.25,13,2.75s1.25,6,3.75,7.75c2.105,1.474,3.439,4.187,6.815,6.855c0.632,0.5,1.396,1.171,2.185,1.645
	c5,3,10.25,3.75,11.25,5.75s7,8.5,7.5,12.25s3,4,3,8.5s-2.25,14.75-3.5,16.75s-5.25,3.5-4.25,5.25s4.5,4.75,7.75,5
	s13.25-3.25,14.75-2s3.5,4.5,4.25,6.75s2.5,8,3.25,10s1,4.25,2.75,3.25s4.5-5.5,5.5-6.75s5.25-3.75,7-3.25s8.25,4.25,9.5,7
	s1.25,9.75,3.5,10.5c1.872,0.624,3.382,1.756,3.842,2.122c1.379-0.338,2.669-0.6,3.623-1.312c2.655-1.982,3.983-5.096,5.663-7.809
	c2.51-4.055,1.933-4.449,3.21-5.41c1.276-0.959,2.355-0.905,4.072-0.905c3.948,0,5.771-1.591,4.763-6.972
	c-0.577-3.076-0.746-7.089-2.909-7.911c-0.964-0.366-3.024,0.204-3.52-0.138c-0.494-0.342-0.93-0.369-0.986-1.04
	c-0.114-1.344,1.283-3.757,3.168-6.541c1.639-2.418,3.214-3.331,3.706-4.894c0.255-0.812,0.328-3.744,0.502-4.206
	c0.175-0.462,0.45-0.741,1.112-0.82c1.325-0.158,3.303,0.929,5.087,2.278c1.976,1.495,4.939,2.957,5.569,2.131
	c0.314-0.413-0.401-0.798-0.247-2.205c0.155-1.406-0.383-4.225-0.383-6.268c0-3.643,0.02-5.663,0.688-7.415s0.003-1.442,2.688-3.693
	c2.445-2.051,4.741-4.427,6.668-7.599l0.971-10.165c0.273-2.859,0.247-7.402-0.133-9.658c-0.379-2.255-1.112-2.225-1.361-2.854
	c-0.427-1.083-1.056-2.947-0.946-3.361c0.01-0.038,0.024-0.07,0.04-0.1c-0.177,0.127-0.556,0.343-1.297,0.651
	c-2.069,0.861-3.913,4.666-5.43,4.93c-0.79,0.138-1.374,0.135-2.4-0.103c-1.025-0.238-1.997-0.645-2.576-1.224
	c-2.139-2.139-1.772-5.155,0.27-7.714c2.063-2.587,4.655-4.865,8.928-5.652c1.663-0.306,2.978,0.011,3.642-0.334
	c0.96-0.498,2.629-1.006,3.427-1.519c1.597-1.026,2.685-3.596,4.024-5.643c2.449-3.74,3.709-4.496,4.092-6.424
	c0.191-0.964,0.149-3.7-0.128-4.905c-0.278-1.205-0.29-1.382-1.042-2.026c-0.854-0.73-2.67-0.693-3.091-0.893
	c-0.422-0.2-0.618-0.357-0.574-0.921c0.087-1.127,1.137-2.371,3.055-3.627c0.764-0.5,2.57-1.913,3.121-2.402
	c0.551-0.489,0.281-1.933,0.33-3c0.09-1.989-0.389-3.948-0.278-10.841c0.153-9.58,0.456-15.905,1.396-18.507
	s2.433-1.763,6.214-2.265c2.449-0.325,5.229-0.278,6.826-1.159s1.957-3.301,2.804-4.655c1.179-1.886,1.021-1.311,1.217-1.585
	c0.195-0.275,1.007-1.212,3.58,2.168c2.399,3.152,4.642,5.184,6.942,6.156c1.149,0.487,2.342,0.681,3.716,0.701
	c1.373,0.02,6.655,0.973,8.538,0.888c5.509-0.249,2.562-0.486,3.748-0.961c0.618-0.247,1.938-1.856,1.854-2.516
	S573.917,93.48,573.166,93.016z"/>
</svg>
